<svg xmlns="http://www.w3.org/2000/svg" xmlns:xlink="http://www.w3.org/1999/xlink" width="500" zoomAndPan="magnify" viewBox="0 0 375 374.999991" height="500" preserveAspectRatio="xMidYMid meet" version="1.0"><defs><g/><clipPath id="a4da2fdaa7"><path d="M 187.5 0 C 83.945312 0 0 83.945312 0 187.5 C 0 291.054688 83.945312 375 187.5 375 C 291.054688 375 375 291.054688 375 187.5 C 375 83.945312 291.054688 0 187.5 0 Z M 187.5 0 " clip-rule="nonzero"/></clipPath><clipPath id="cb7cb10c5e"><path d="M 0 0 L 375 0 L 375 375 L 0 375 Z M 0 0 " clip-rule="nonzero"/></clipPath><clipPath id="9cce956d3d"><path d="M 187.5 0 C 83.945312 0 0 83.945312 0 187.5 C 0 291.054688 83.945312 375 187.5 375 C 291.054688 375 375 291.054688 375 187.5 C 375 83.945312 291.054688 0 187.5 0 Z M 187.5 0 " clip-rule="nonzero"/></clipPath><linearGradient x1="0" gradientTransform="matrix(1.464844, 0, 0, 1.464844, 0.0000045, 0)" y1="128" x2="256" gradientUnits="userSpaceOnUse" y2="128" id="f29bc343b0"><stop stop-opacity="1" stop-color="rgb(54.899597%, 32.159424%, 100%)" offset="0"/><stop stop-opacity="1" stop-color="rgb(54.824829%, 32.377625%, 99.960327%)" offset="0.00390625"/><stop stop-opacity="1" stop-color="rgb(54.751587%, 32.597351%, 99.92218%)" offset="0.0078125"/><stop stop-opacity="1" stop-color="rgb(54.678345%, 32.815552%, 99.884033%)" offset="0.0117188"/><stop stop-opacity="1" stop-color="rgb(54.605103%, 33.035278%, 99.845886%)" offset="0.015625"/><stop stop-opacity="1" stop-color="rgb(54.53186%, 33.253479%, 99.807739%)" offset="0.0195312"/><stop stop-opacity="1" stop-color="rgb(54.458618%, 33.473206%, 99.769592%)" offset="0.0234375"/><stop stop-opacity="1" stop-color="rgb(54.38385%, 33.691406%, 99.731445%)" offset="0.0273438"/><stop stop-opacity="1" stop-color="rgb(54.310608%, 33.911133%, 99.693298%)" offset="0.03125"/><stop stop-opacity="1" stop-color="rgb(54.237366%, 34.130859%, 99.655151%)" offset="0.0351562"/><stop stop-opacity="1" stop-color="rgb(54.164124%, 34.350586%, 99.617004%)" offset="0.0390625"/><stop stop-opacity="1" stop-color="rgb(54.090881%, 34.568787%, 99.577332%)" offset="0.0429688"/><stop stop-opacity="1" stop-color="rgb(54.017639%, 34.788513%, 99.539185%)" offset="0.046875"/><stop stop-opacity="1" stop-color="rgb(53.942871%, 35.006714%, 99.501038%)" offset="0.0507812"/><stop stop-opacity="1" stop-color="rgb(53.869629%, 35.22644%, 99.462891%)" offset="0.0546875"/><stop stop-opacity="1" stop-color="rgb(53.796387%, 35.444641%, 99.424744%)" offset="0.0585938"/><stop stop-opacity="1" stop-color="rgb(53.723145%, 35.664368%, 99.386597%)" offset="0.0625"/><stop stop-opacity="1" stop-color="rgb(53.649902%, 35.882568%, 99.34845%)" offset="0.0664062"/><stop stop-opacity="1" stop-color="rgb(53.57666%, 36.102295%, 99.310303%)" offset="0.0703125"/><stop stop-opacity="1" stop-color="rgb(53.501892%, 36.320496%, 99.272156%)" offset="0.0742188"/><stop stop-opacity="1" stop-color="rgb(53.42865%, 36.540222%, 99.234009%)" offset="0.078125"/><stop stop-opacity="1" stop-color="rgb(53.355408%, 36.758423%, 99.195862%)" offset="0.0820312"/><stop stop-opacity="1" stop-color="rgb(53.282166%, 36.978149%, 99.157715%)" offset="0.0859375"/><stop stop-opacity="1" stop-color="rgb(53.207397%, 37.19635%, 99.118042%)" offset="0.0898438"/><stop stop-opacity="1" stop-color="rgb(53.134155%, 37.416077%, 99.079895%)" offset="0.09375"/><stop stop-opacity="1" stop-color="rgb(53.060913%, 37.635803%, 99.041748%)" offset="0.0976562"/><stop stop-opacity="1" stop-color="rgb(52.987671%, 37.85553%, 99.003601%)" offset="0.101562"/><stop stop-opacity="1" stop-color="rgb(52.914429%, 38.07373%, 98.965454%)" offset="0.105469"/><stop stop-opacity="1" stop-color="rgb(52.841187%, 38.293457%, 98.927307%)" offset="0.109375"/><stop stop-opacity="1" stop-color="rgb(52.766418%, 38.511658%, 98.88916%)" offset="0.113281"/><stop stop-opacity="1" stop-color="rgb(52.693176%, 38.731384%, 98.851013%)" offset="0.117188"/><stop stop-opacity="1" stop-color="rgb(52.619934%, 38.949585%, 98.812866%)" offset="0.121094"/><stop stop-opacity="1" stop-color="rgb(52.546692%, 39.169312%, 98.774719%)" offset="0.125"/><stop stop-opacity="1" stop-color="rgb(52.47345%, 39.387512%, 98.736572%)" offset="0.128906"/><stop stop-opacity="1" stop-color="rgb(52.400208%, 39.607239%, 98.698425%)" offset="0.132812"/><stop stop-opacity="1" stop-color="rgb(52.325439%, 39.825439%, 98.658752%)" offset="0.136719"/><stop stop-opacity="1" stop-color="rgb(52.252197%, 40.045166%, 98.620605%)" offset="0.140625"/><stop stop-opacity="1" stop-color="rgb(52.178955%, 40.263367%, 98.582458%)" offset="0.144531"/><stop stop-opacity="1" stop-color="rgb(52.105713%, 40.483093%, 98.544312%)" offset="0.148438"/><stop stop-opacity="1" stop-color="rgb(52.032471%, 40.701294%, 98.506165%)" offset="0.152344"/><stop stop-opacity="1" stop-color="rgb(51.959229%, 40.921021%, 98.468018%)" offset="0.15625"/><stop stop-opacity="1" stop-color="rgb(51.88446%, 41.140747%, 98.429871%)" offset="0.160156"/><stop stop-opacity="1" stop-color="rgb(51.811218%, 41.360474%, 98.391724%)" offset="0.164062"/><stop stop-opacity="1" stop-color="rgb(51.737976%, 41.578674%, 98.353577%)" offset="0.167969"/><stop stop-opacity="1" stop-color="rgb(51.664734%, 41.798401%, 98.31543%)" offset="0.171875"/><stop stop-opacity="1" stop-color="rgb(51.591492%, 42.016602%, 98.275757%)" offset="0.175781"/><stop stop-opacity="1" stop-color="rgb(51.51825%, 42.236328%, 98.23761%)" offset="0.179688"/><stop stop-opacity="1" stop-color="rgb(51.443481%, 42.454529%, 98.199463%)" offset="0.183594"/><stop stop-opacity="1" stop-color="rgb(51.370239%, 42.674255%, 98.161316%)" offset="0.1875"/><stop stop-opacity="1" stop-color="rgb(51.296997%, 42.892456%, 98.123169%)" offset="0.191406"/><stop stop-opacity="1" stop-color="rgb(51.223755%, 43.112183%, 98.085022%)" offset="0.195312"/><stop stop-opacity="1" stop-color="rgb(51.148987%, 43.330383%, 98.046875%)" offset="0.199219"/><stop stop-opacity="1" stop-color="rgb(51.075745%, 43.55011%, 98.008728%)" offset="0.203125"/><stop stop-opacity="1" stop-color="rgb(51.002502%, 43.768311%, 97.970581%)" offset="0.207031"/><stop stop-opacity="1" stop-color="rgb(50.92926%, 43.988037%, 97.932434%)" offset="0.210938"/><stop stop-opacity="1" stop-color="rgb(50.856018%, 44.207764%, 97.894287%)" offset="0.214844"/><stop stop-opacity="1" stop-color="rgb(50.782776%, 44.42749%, 97.85614%)" offset="0.21875"/><stop stop-opacity="1" stop-color="rgb(50.708008%, 44.645691%, 97.816467%)" offset="0.222656"/><stop stop-opacity="1" stop-color="rgb(50.634766%, 44.865417%, 97.77832%)" offset="0.226562"/><stop stop-opacity="1" stop-color="rgb(50.561523%, 45.083618%, 97.740173%)" offset="0.230469"/><stop stop-opacity="1" stop-color="rgb(50.488281%, 45.303345%, 97.702026%)" offset="0.234375"/><stop stop-opacity="1" stop-color="rgb(50.415039%, 45.521545%, 97.663879%)" offset="0.238281"/><stop stop-opacity="1" stop-color="rgb(50.341797%, 45.741272%, 97.625732%)" offset="0.242188"/><stop stop-opacity="1" stop-color="rgb(50.267029%, 45.959473%, 97.587585%)" offset="0.246094"/><stop stop-opacity="1" stop-color="rgb(50.193787%, 46.179199%, 97.549438%)" offset="0.25"/><stop stop-opacity="1" stop-color="rgb(50.120544%, 46.3974%, 97.511292%)" offset="0.253906"/><stop stop-opacity="1" stop-color="rgb(50.047302%, 46.617126%, 97.473145%)" offset="0.257812"/><stop stop-opacity="1" stop-color="rgb(49.97406%, 46.835327%, 97.434998%)" offset="0.261719"/><stop stop-opacity="1" stop-color="rgb(49.900818%, 47.055054%, 97.396851%)" offset="0.265625"/><stop stop-opacity="1" stop-color="rgb(49.82605%, 47.273254%, 97.357178%)" offset="0.269531"/><stop stop-opacity="1" stop-color="rgb(49.752808%, 47.492981%, 97.319031%)" offset="0.273438"/><stop stop-opacity="1" stop-color="rgb(49.679565%, 47.712708%, 97.280884%)" offset="0.277344"/><stop stop-opacity="1" stop-color="rgb(49.606323%, 47.932434%, 97.242737%)" offset="0.28125"/><stop stop-opacity="1" stop-color="rgb(49.533081%, 48.150635%, 97.20459%)" offset="0.285156"/><stop stop-opacity="1" stop-color="rgb(49.459839%, 48.370361%, 97.166443%)" offset="0.289062"/><stop stop-opacity="1" stop-color="rgb(49.385071%, 48.588562%, 97.128296%)" offset="0.292969"/><stop stop-opacity="1" stop-color="rgb(49.311829%, 48.808289%, 97.090149%)" offset="0.296875"/><stop stop-opacity="1" stop-color="rgb(49.238586%, 49.026489%, 97.052002%)" offset="0.300781"/><stop stop-opacity="1" stop-color="rgb(49.165344%, 49.246216%, 97.013855%)" offset="0.304688"/><stop stop-opacity="1" stop-color="rgb(49.090576%, 49.464417%, 96.974182%)" offset="0.308594"/><stop stop-opacity="1" stop-color="rgb(49.017334%, 49.684143%, 96.936035%)" offset="0.3125"/><stop stop-opacity="1" stop-color="rgb(48.944092%, 49.902344%, 96.897888%)" offset="0.316406"/><stop stop-opacity="1" stop-color="rgb(48.87085%, 50.12207%, 96.859741%)" offset="0.320312"/><stop stop-opacity="1" stop-color="rgb(48.797607%, 50.340271%, 96.821594%)" offset="0.324219"/><stop stop-opacity="1" stop-color="rgb(48.724365%, 50.559998%, 96.783447%)" offset="0.328125"/><stop stop-opacity="1" stop-color="rgb(48.649597%, 50.778198%, 96.7453%)" offset="0.332031"/><stop stop-opacity="1" stop-color="rgb(48.576355%, 50.997925%, 96.707153%)" offset="0.335938"/><stop stop-opacity="1" stop-color="rgb(48.503113%, 51.217651%, 96.669006%)" offset="0.339844"/><stop stop-opacity="1" stop-color="rgb(48.429871%, 51.437378%, 96.630859%)" offset="0.34375"/><stop stop-opacity="1" stop-color="rgb(48.356628%, 51.655579%, 96.592712%)" offset="0.347656"/><stop stop-opacity="1" stop-color="rgb(48.283386%, 51.875305%, 96.554565%)" offset="0.351562"/><stop stop-opacity="1" stop-color="rgb(48.208618%, 52.093506%, 96.514893%)" offset="0.355469"/><stop stop-opacity="1" stop-color="rgb(48.135376%, 52.313232%, 96.476746%)" offset="0.359375"/><stop stop-opacity="1" stop-color="rgb(48.062134%, 52.531433%, 96.438599%)" offset="0.363281"/><stop stop-opacity="1" stop-color="rgb(47.988892%, 52.75116%, 96.400452%)" offset="0.367188"/><stop stop-opacity="1" stop-color="rgb(47.915649%, 52.96936%, 96.362305%)" offset="0.371094"/><stop stop-opacity="1" stop-color="rgb(47.842407%, 53.189087%, 96.324158%)" offset="0.375"/><stop stop-opacity="1" stop-color="rgb(47.767639%, 53.407288%, 96.286011%)" offset="0.378906"/><stop stop-opacity="1" stop-color="rgb(47.694397%, 53.627014%, 96.247864%)" offset="0.382812"/><stop stop-opacity="1" stop-color="rgb(47.621155%, 53.845215%, 96.209717%)" offset="0.386719"/><stop stop-opacity="1" stop-color="rgb(47.547913%, 54.064941%, 96.17157%)" offset="0.390625"/><stop stop-opacity="1" stop-color="rgb(47.473145%, 54.283142%, 96.133423%)" offset="0.394531"/><stop stop-opacity="1" stop-color="rgb(47.399902%, 54.502869%, 96.095276%)" offset="0.398438"/><stop stop-opacity="1" stop-color="rgb(47.32666%, 54.722595%, 96.055603%)" offset="0.402344"/><stop stop-opacity="1" stop-color="rgb(47.253418%, 54.942322%, 96.017456%)" offset="0.40625"/><stop stop-opacity="1" stop-color="rgb(47.180176%, 55.160522%, 95.979309%)" offset="0.410156"/><stop stop-opacity="1" stop-color="rgb(47.106934%, 55.380249%, 95.941162%)" offset="0.414062"/><stop stop-opacity="1" stop-color="rgb(47.032166%, 55.59845%, 95.903015%)" offset="0.417969"/><stop stop-opacity="1" stop-color="rgb(46.958923%, 55.818176%, 95.864868%)" offset="0.421875"/><stop stop-opacity="1" stop-color="rgb(46.885681%, 56.036377%, 95.826721%)" offset="0.425781"/><stop stop-opacity="1" stop-color="rgb(46.812439%, 56.256104%, 95.788574%)" offset="0.429688"/><stop stop-opacity="1" stop-color="rgb(46.739197%, 56.474304%, 95.750427%)" offset="0.433594"/><stop stop-opacity="1" stop-color="rgb(46.665955%, 56.694031%, 95.71228%)" offset="0.4375"/><stop stop-opacity="1" stop-color="rgb(46.591187%, 56.912231%, 95.672607%)" offset="0.441406"/><stop stop-opacity="1" stop-color="rgb(46.517944%, 57.131958%, 95.63446%)" offset="0.445312"/><stop stop-opacity="1" stop-color="rgb(46.444702%, 57.350159%, 95.596313%)" offset="0.449219"/><stop stop-opacity="1" stop-color="rgb(46.37146%, 57.569885%, 95.558167%)" offset="0.453125"/><stop stop-opacity="1" stop-color="rgb(46.298218%, 57.789612%, 95.52002%)" offset="0.457031"/><stop stop-opacity="1" stop-color="rgb(46.224976%, 58.009338%, 95.481873%)" offset="0.460938"/><stop stop-opacity="1" stop-color="rgb(46.150208%, 58.227539%, 95.443726%)" offset="0.464844"/><stop stop-opacity="1" stop-color="rgb(46.076965%, 58.447266%, 95.405579%)" offset="0.46875"/><stop stop-opacity="1" stop-color="rgb(46.003723%, 58.665466%, 95.367432%)" offset="0.472656"/><stop stop-opacity="1" stop-color="rgb(45.930481%, 58.885193%, 95.329285%)" offset="0.476562"/><stop stop-opacity="1" stop-color="rgb(45.857239%, 59.103394%, 95.291138%)" offset="0.480469"/><stop stop-opacity="1" stop-color="rgb(45.783997%, 59.32312%, 95.252991%)" offset="0.484375"/><stop stop-opacity="1" stop-color="rgb(45.709229%, 59.541321%, 95.213318%)" offset="0.488281"/><stop stop-opacity="1" stop-color="rgb(45.635986%, 59.761047%, 95.175171%)" offset="0.492188"/><stop stop-opacity="1" stop-color="rgb(45.562744%, 59.979248%, 95.137024%)" offset="0.496094"/><stop stop-opacity="1" stop-color="rgb(45.489502%, 60.198975%, 95.098877%)" offset="0.5"/><stop stop-opacity="1" stop-color="rgb(45.414734%, 60.417175%, 95.06073%)" offset="0.503906"/><stop stop-opacity="1" stop-color="rgb(45.341492%, 60.636902%, 95.022583%)" offset="0.507812"/><stop stop-opacity="1" stop-color="rgb(45.26825%, 60.855103%, 94.984436%)" offset="0.511719"/><stop stop-opacity="1" stop-color="rgb(45.195007%, 61.074829%, 94.946289%)" offset="0.515625"/><stop stop-opacity="1" stop-color="rgb(45.121765%, 61.294556%, 94.908142%)" offset="0.519531"/><stop stop-opacity="1" stop-color="rgb(45.048523%, 61.514282%, 94.869995%)" offset="0.523438"/><stop stop-opacity="1" stop-color="rgb(44.973755%, 61.732483%, 94.831848%)" offset="0.527344"/><stop stop-opacity="1" stop-color="rgb(44.900513%, 61.952209%, 94.793701%)" offset="0.53125"/><stop stop-opacity="1" stop-color="rgb(44.827271%, 62.17041%, 94.754028%)" offset="0.535156"/><stop stop-opacity="1" stop-color="rgb(44.754028%, 62.390137%, 94.715881%)" offset="0.539062"/><stop stop-opacity="1" stop-color="rgb(44.680786%, 62.608337%, 94.677734%)" offset="0.542969"/><stop stop-opacity="1" stop-color="rgb(44.607544%, 62.828064%, 94.639587%)" offset="0.546875"/><stop stop-opacity="1" stop-color="rgb(44.532776%, 63.046265%, 94.60144%)" offset="0.550781"/><stop stop-opacity="1" stop-color="rgb(44.459534%, 63.265991%, 94.563293%)" offset="0.554688"/><stop stop-opacity="1" stop-color="rgb(44.386292%, 63.484192%, 94.525146%)" offset="0.558594"/><stop stop-opacity="1" stop-color="rgb(44.313049%, 63.703918%, 94.487%)" offset="0.5625"/><stop stop-opacity="1" stop-color="rgb(44.239807%, 63.922119%, 94.448853%)" offset="0.566406"/><stop stop-opacity="1" stop-color="rgb(44.166565%, 64.141846%, 94.410706%)" offset="0.570312"/><stop stop-opacity="1" stop-color="rgb(44.091797%, 64.360046%, 94.371033%)" offset="0.574219"/><stop stop-opacity="1" stop-color="rgb(44.018555%, 64.579773%, 94.332886%)" offset="0.578125"/><stop stop-opacity="1" stop-color="rgb(43.945312%, 64.7995%, 94.294739%)" offset="0.582031"/><stop stop-opacity="1" stop-color="rgb(43.87207%, 65.019226%, 94.256592%)" offset="0.585938"/><stop stop-opacity="1" stop-color="rgb(43.798828%, 65.237427%, 94.218445%)" offset="0.589844"/><stop stop-opacity="1" stop-color="rgb(43.725586%, 65.457153%, 94.180298%)" offset="0.59375"/><stop stop-opacity="1" stop-color="rgb(43.650818%, 65.675354%, 94.142151%)" offset="0.597656"/><stop stop-opacity="1" stop-color="rgb(43.577576%, 65.895081%, 94.104004%)" offset="0.601562"/><stop stop-opacity="1" stop-color="rgb(43.504333%, 66.113281%, 94.065857%)" offset="0.605469"/><stop stop-opacity="1" stop-color="rgb(43.431091%, 66.333008%, 94.02771%)" offset="0.609375"/><stop stop-opacity="1" stop-color="rgb(43.356323%, 66.551208%, 93.989563%)" offset="0.613281"/><stop stop-opacity="1" stop-color="rgb(43.283081%, 66.770935%, 93.951416%)" offset="0.617188"/><stop stop-opacity="1" stop-color="rgb(43.209839%, 66.989136%, 93.911743%)" offset="0.621094"/><stop stop-opacity="1" stop-color="rgb(43.136597%, 67.208862%, 93.873596%)" offset="0.625"/><stop stop-opacity="1" stop-color="rgb(43.063354%, 67.427063%, 93.835449%)" offset="0.628906"/><stop stop-opacity="1" stop-color="rgb(42.990112%, 67.64679%, 93.797302%)" offset="0.632812"/><stop stop-opacity="1" stop-color="rgb(42.915344%, 67.866516%, 93.759155%)" offset="0.636719"/><stop stop-opacity="1" stop-color="rgb(42.842102%, 68.086243%, 93.721008%)" offset="0.640625"/><stop stop-opacity="1" stop-color="rgb(42.76886%, 68.304443%, 93.682861%)" offset="0.644531"/><stop stop-opacity="1" stop-color="rgb(42.695618%, 68.52417%, 93.644714%)" offset="0.648438"/><stop stop-opacity="1" stop-color="rgb(42.622375%, 68.742371%, 93.606567%)" offset="0.652344"/><stop stop-opacity="1" stop-color="rgb(42.549133%, 68.962097%, 93.56842%)" offset="0.65625"/><stop stop-opacity="1" stop-color="rgb(42.474365%, 69.180298%, 93.530273%)" offset="0.660156"/><stop stop-opacity="1" stop-color="rgb(42.401123%, 69.400024%, 93.492126%)" offset="0.664062"/><stop stop-opacity="1" stop-color="rgb(42.327881%, 69.618225%, 93.452454%)" offset="0.667969"/><stop stop-opacity="1" stop-color="rgb(42.254639%, 69.837952%, 93.414307%)" offset="0.671875"/><stop stop-opacity="1" stop-color="rgb(42.181396%, 70.056152%, 93.37616%)" offset="0.675781"/><stop stop-opacity="1" stop-color="rgb(42.108154%, 70.275879%, 93.338013%)" offset="0.679688"/><stop stop-opacity="1" stop-color="rgb(42.033386%, 70.49408%, 93.299866%)" offset="0.683594"/><stop stop-opacity="1" stop-color="rgb(41.960144%, 70.713806%, 93.261719%)" offset="0.6875"/><stop stop-opacity="1" stop-color="rgb(41.886902%, 70.932007%, 93.223572%)" offset="0.691406"/><stop stop-opacity="1" stop-color="rgb(41.81366%, 71.151733%, 93.185425%)" offset="0.695312"/><stop stop-opacity="1" stop-color="rgb(41.740417%, 71.37146%, 93.147278%)" offset="0.699219"/><stop stop-opacity="1" stop-color="rgb(41.667175%, 71.591187%, 93.109131%)" offset="0.703125"/><stop stop-opacity="1" stop-color="rgb(41.592407%, 71.809387%, 93.069458%)" offset="0.707031"/><stop stop-opacity="1" stop-color="rgb(41.519165%, 72.029114%, 93.031311%)" offset="0.710938"/><stop stop-opacity="1" stop-color="rgb(41.445923%, 72.247314%, 92.993164%)" offset="0.714844"/><stop stop-opacity="1" stop-color="rgb(41.372681%, 72.467041%, 92.955017%)" offset="0.71875"/><stop stop-opacity="1" stop-color="rgb(41.297913%, 72.685242%, 92.91687%)" offset="0.722656"/><stop stop-opacity="1" stop-color="rgb(41.22467%, 72.904968%, 92.878723%)" offset="0.726562"/><stop stop-opacity="1" stop-color="rgb(41.151428%, 73.123169%, 92.840576%)" offset="0.730469"/><stop stop-opacity="1" stop-color="rgb(41.078186%, 73.342896%, 92.802429%)" offset="0.734375"/><stop stop-opacity="1" stop-color="rgb(41.004944%, 73.561096%, 92.764282%)" offset="0.738281"/><stop stop-opacity="1" stop-color="rgb(40.931702%, 73.780823%, 92.726135%)" offset="0.742188"/><stop stop-opacity="1" stop-color="rgb(40.856934%, 73.999023%, 92.687988%)" offset="0.746094"/><stop stop-opacity="1" stop-color="rgb(40.783691%, 74.21875%, 92.649841%)" offset="0.75"/><stop stop-opacity="1" stop-color="rgb(40.710449%, 74.436951%, 92.610168%)" offset="0.753906"/><stop stop-opacity="1" stop-color="rgb(40.637207%, 74.656677%, 92.572021%)" offset="0.757812"/><stop stop-opacity="1" stop-color="rgb(40.563965%, 74.876404%, 92.533875%)" offset="0.761719"/><stop stop-opacity="1" stop-color="rgb(40.490723%, 75.09613%, 92.495728%)" offset="0.765625"/><stop stop-opacity="1" stop-color="rgb(40.415955%, 75.314331%, 92.457581%)" offset="0.769531"/><stop stop-opacity="1" stop-color="rgb(40.342712%, 75.534058%, 92.419434%)" offset="0.773438"/><stop stop-opacity="1" stop-color="rgb(40.26947%, 75.752258%, 92.381287%)" offset="0.777344"/><stop stop-opacity="1" stop-color="rgb(40.196228%, 75.971985%, 92.34314%)" offset="0.78125"/><stop stop-opacity="1" stop-color="rgb(40.122986%, 76.190186%, 92.304993%)" offset="0.785156"/><stop stop-opacity="1" stop-color="rgb(40.049744%, 76.409912%, 92.266846%)" offset="0.789062"/><stop stop-opacity="1" stop-color="rgb(39.974976%, 76.628113%, 92.228699%)" offset="0.792969"/><stop stop-opacity="1" stop-color="rgb(39.901733%, 76.847839%, 92.190552%)" offset="0.796875"/><stop stop-opacity="1" stop-color="rgb(39.828491%, 77.06604%, 92.150879%)" offset="0.800781"/><stop stop-opacity="1" stop-color="rgb(39.755249%, 77.285767%, 92.112732%)" offset="0.804688"/><stop stop-opacity="1" stop-color="rgb(39.680481%, 77.503967%, 92.074585%)" offset="0.808594"/><stop stop-opacity="1" stop-color="rgb(39.607239%, 77.723694%, 92.036438%)" offset="0.8125"/><stop stop-opacity="1" stop-color="rgb(39.533997%, 77.941895%, 91.998291%)" offset="0.816406"/><stop stop-opacity="1" stop-color="rgb(39.460754%, 78.161621%, 91.960144%)" offset="0.820312"/><stop stop-opacity="1" stop-color="rgb(39.387512%, 78.381348%, 91.921997%)" offset="0.824219"/><stop stop-opacity="1" stop-color="rgb(39.31427%, 78.601074%, 91.88385%)" offset="0.828125"/><stop stop-opacity="1" stop-color="rgb(39.239502%, 78.819275%, 91.845703%)" offset="0.832031"/><stop stop-opacity="1" stop-color="rgb(39.16626%, 79.039001%, 91.807556%)" offset="0.835938"/><stop stop-opacity="1" stop-color="rgb(39.093018%, 79.257202%, 91.767883%)" offset="0.839844"/><stop stop-opacity="1" stop-color="rgb(39.019775%, 79.476929%, 91.729736%)" offset="0.84375"/><stop stop-opacity="1" stop-color="rgb(38.946533%, 79.695129%, 91.691589%)" offset="0.847656"/><stop stop-opacity="1" stop-color="rgb(38.873291%, 79.914856%, 91.653442%)" offset="0.851562"/><stop stop-opacity="1" stop-color="rgb(38.798523%, 80.133057%, 91.615295%)" offset="0.855469"/><stop stop-opacity="1" stop-color="rgb(38.725281%, 80.352783%, 91.577148%)" offset="0.859375"/><stop stop-opacity="1" stop-color="rgb(38.652039%, 80.570984%, 91.539001%)" offset="0.863281"/><stop stop-opacity="1" stop-color="rgb(38.578796%, 80.79071%, 91.500854%)" offset="0.867188"/><stop stop-opacity="1" stop-color="rgb(38.505554%, 81.008911%, 91.462708%)" offset="0.871094"/><stop stop-opacity="1" stop-color="rgb(38.432312%, 81.228638%, 91.424561%)" offset="0.875"/><stop stop-opacity="1" stop-color="rgb(38.357544%, 81.448364%, 91.386414%)" offset="0.878906"/><stop stop-opacity="1" stop-color="rgb(38.284302%, 81.668091%, 91.348267%)" offset="0.882812"/><stop stop-opacity="1" stop-color="rgb(38.21106%, 81.886292%, 91.308594%)" offset="0.886719"/><stop stop-opacity="1" stop-color="rgb(38.137817%, 82.106018%, 91.270447%)" offset="0.890625"/><stop stop-opacity="1" stop-color="rgb(38.064575%, 82.324219%, 91.2323%)" offset="0.894531"/><stop stop-opacity="1" stop-color="rgb(37.991333%, 82.543945%, 91.194153%)" offset="0.898438"/><stop stop-opacity="1" stop-color="rgb(37.916565%, 82.762146%, 91.156006%)" offset="0.902344"/><stop stop-opacity="1" stop-color="rgb(37.843323%, 82.981873%, 91.117859%)" offset="0.90625"/><stop stop-opacity="1" stop-color="rgb(37.770081%, 83.200073%, 91.079712%)" offset="0.910156"/><stop stop-opacity="1" stop-color="rgb(37.696838%, 83.4198%, 91.041565%)" offset="0.914062"/><stop stop-opacity="1" stop-color="rgb(37.62207%, 83.638%, 91.003418%)" offset="0.917969"/><stop stop-opacity="1" stop-color="rgb(37.548828%, 83.857727%, 90.965271%)" offset="0.921875"/><stop stop-opacity="1" stop-color="rgb(37.475586%, 84.075928%, 90.927124%)" offset="0.925781"/><stop stop-opacity="1" stop-color="rgb(37.402344%, 84.295654%, 90.888977%)" offset="0.929688"/><stop stop-opacity="1" stop-color="rgb(37.329102%, 84.513855%, 90.849304%)" offset="0.933594"/><stop stop-opacity="1" stop-color="rgb(37.255859%, 84.733582%, 90.811157%)" offset="0.9375"/><stop stop-opacity="1" stop-color="rgb(37.181091%, 84.953308%, 90.77301%)" offset="0.941406"/><stop stop-opacity="1" stop-color="rgb(37.107849%, 85.173035%, 90.734863%)" offset="0.945312"/><stop stop-opacity="1" stop-color="rgb(37.034607%, 85.391235%, 90.696716%)" offset="0.949219"/><stop stop-opacity="1" stop-color="rgb(36.961365%, 85.610962%, 90.658569%)" offset="0.953125"/><stop stop-opacity="1" stop-color="rgb(36.888123%, 85.829163%, 90.620422%)" offset="0.957031"/><stop stop-opacity="1" stop-color="rgb(36.81488%, 86.048889%, 90.582275%)" offset="0.960938"/><stop stop-opacity="1" stop-color="rgb(36.740112%, 86.26709%, 90.544128%)" offset="0.964844"/><stop stop-opacity="1" stop-color="rgb(36.66687%, 86.486816%, 90.505981%)" offset="0.96875"/><stop stop-opacity="1" stop-color="rgb(36.593628%, 86.705017%, 90.467834%)" offset="0.972656"/><stop stop-opacity="1" stop-color="rgb(36.520386%, 86.924744%, 90.429688%)" offset="0.976562"/><stop stop-opacity="1" stop-color="rgb(36.447144%, 87.142944%, 90.390015%)" offset="0.980469"/><stop stop-opacity="1" stop-color="rgb(36.373901%, 87.362671%, 90.351868%)" offset="0.984375"/><stop stop-opacity="1" stop-color="rgb(36.299133%, 87.580872%, 90.313721%)" offset="0.988281"/><stop stop-opacity="1" stop-color="rgb(36.225891%, 87.800598%, 90.275574%)" offset="0.992188"/><stop stop-opacity="1" stop-color="rgb(36.152649%, 88.018799%, 90.237427%)" offset="0.996094"/><stop stop-opacity="1" stop-color="rgb(36.079407%, 88.238525%, 90.19928%)" offset="1"/></linearGradient><clipPath id="66ebf16624"><rect x="0" width="375" y="0" height="375"/></clipPath><clipPath id="a208a66500"><rect x="0" width="269" y="0" height="126"/></clipPath></defs><g clip-path="url(#a4da2fdaa7)"><g transform="matrix(1, 0, 0, 1, 0, 0)"><g clip-path="url(#66ebf16624)"><g clip-path="url(#cb7cb10c5e)"><g clip-path="url(#9cce956d3d)"><rect x="-82.5" fill="url(#f29bc343b0)" width="540" height="539.999987" y="-82.499998"/></g></g></g></g><path stroke-linecap="butt" transform="matrix(0.75, 0, 0, 0.75, 0.0000045, 0)" fill="none" stroke-linejoin="miter" d="M 249.999994 0 C 111.927078 0 -0.000006 111.927084 -0.000006 250 C -0.000006 388.072917 111.927078 500.000001 249.999994 500.000001 C 388.072911 500.000001 499.999995 388.072917 499.999995 250 C 499.999995 111.927084 388.072911 0 249.999994 0 Z M 249.999994 0 " stroke="#8c52ff" stroke-width="8" stroke-opacity="1" stroke-miterlimit="4"/></g><g transform="matrix(1, 0, 0, 1, 54, 123)"><g clip-path="url(#a208a66500)"><g fill="#000000" fill-opacity="1"><g transform="translate(0.960938, 100.749978)"><g><path d="M 35.640625 0.40625 C 34.816406 0.40625 33.816406 0.390625 32.640625 0.359375 C 31.472656 0.328125 30.375 0.207031 29.34375 0 C 28.238281 -0.207031 27.378906 -0.828125 26.765625 -1.859375 C 23.597656 -7.160156 20.445312 -13.460938 17.3125 -20.765625 C 14.175781 -28.066406 11.28125 -35.882812 8.625 -44.21875 C 5.976562 -52.5625 3.722656 -60.929688 1.859375 -69.328125 C 1.304688 -71.117188 2.03125 -72.117188 4.03125 -72.328125 C 4.71875 -72.460938 5.644531 -72.566406 6.8125 -72.640625 C 7.988281 -72.710938 9.023438 -72.75 9.921875 -72.75 C 10.953125 -72.75 12.191406 -72.710938 13.640625 -72.640625 C 15.085938 -72.566406 16.257812 -72.460938 17.15625 -72.328125 C 18.320312 -72.191406 19.007812 -71.640625 19.21875 -70.671875 C 20.113281 -63.785156 21.300781 -57.191406 22.78125 -50.890625 C 24.257812 -44.585938 25.894531 -38.921875 27.6875 -33.890625 C 29.476562 -28.859375 31.238281 -24.757812 32.96875 -21.59375 C 33.925781 -19.738281 34.816406 -18.8125 35.640625 -18.8125 C 36.472656 -18.8125 37.367188 -19.738281 38.328125 -21.59375 C 40.191406 -24.90625 42.019531 -29.070312 43.8125 -34.09375 C 45.601562 -39.125 47.253906 -44.753906 48.765625 -50.984375 C 50.285156 -57.222656 51.457031 -63.785156 52.28125 -70.671875 C 52.351562 -71.640625 52.972656 -72.191406 54.140625 -72.328125 C 55.109375 -72.460938 56.347656 -72.546875 57.859375 -72.578125 C 59.378906 -72.617188 60.378906 -72.640625 60.859375 -72.640625 C 61.140625 -72.640625 61.722656 -72.640625 62.609375 -72.640625 C 63.503906 -72.640625 64.4375 -72.617188 65.40625 -72.578125 C 66.375 -72.546875 67.097656 -72.5 67.578125 -72.4375 C 68.472656 -72.363281 69.09375 -72.050781 69.4375 -71.5 C 69.78125 -70.945312 69.816406 -70.257812 69.546875 -69.4375 C 67.753906 -61.101562 65.515625 -52.75 62.828125 -44.375 C 60.140625 -36.007812 57.226562 -28.15625 54.09375 -20.8125 C 50.957031 -13.476562 47.804688 -7.160156 44.640625 -1.859375 C 44.015625 -0.828125 43.148438 -0.207031 42.046875 0 C 40.953125 0.207031 39.816406 0.328125 38.640625 0.359375 C 37.472656 0.390625 36.472656 0.40625 35.640625 0.40625 Z M 35.640625 0.40625 "/></g></g></g><g fill="#000000" fill-opacity="1"><g transform="translate(72.355392, 100.749978)"><g><path d="M 32.34375 0.40625 C 31.789062 0.40625 30.738281 0.351562 29.1875 0.25 C 27.632812 0.15625 26.445312 0.0703125 25.625 0 C 24.9375 -0.132812 24.316406 -0.441406 23.765625 -0.921875 C 23.210938 -1.410156 22.972656 -2 23.046875 -2.6875 C 23.109375 -4.820312 23.222656 -7.539062 23.390625 -10.84375 C 23.566406 -14.15625 23.738281 -17.738281 23.90625 -21.59375 C 24.082031 -25.445312 24.257812 -29.335938 24.4375 -33.265625 C 24.613281 -37.191406 24.785156 -40.84375 24.953125 -44.21875 C 25.128906 -47.59375 25.25 -50.453125 25.3125 -52.796875 C 25.445312 -57.484375 23.898438 -59.828125 20.671875 -59.828125 C 17.703125 -59.828125 14.769531 -59.066406 11.875 -57.546875 C 8.988281 -56.035156 6.820312 -54.078125 5.375 -51.671875 C 4.6875 -50.566406 3.820312 -50.046875 2.78125 -50.109375 C 1.75 -50.179688 1.234375 -50.972656 1.234375 -52.484375 C 1.234375 -53.453125 1.25 -54.726562 1.28125 -56.3125 C 1.320312 -57.894531 1.375 -59.5625 1.4375 -61.3125 C 1.507812 -63.070312 1.5625 -64.707031 1.59375 -66.21875 C 1.632812 -67.738281 1.6875 -68.914062 1.75 -69.75 C 1.894531 -70.644531 2.207031 -71.28125 2.6875 -71.65625 C 3.164062 -72.03125 3.71875 -72.253906 4.34375 -72.328125 C 6.476562 -72.535156 9.179688 -72.65625 12.453125 -72.6875 C 15.722656 -72.726562 19.113281 -72.75 22.625 -72.75 C 26.144531 -72.75 29.28125 -72.75 32.03125 -72.75 C 33.894531 -72.75 36.082031 -72.75 38.59375 -72.75 C 41.101562 -72.75 43.664062 -72.726562 46.28125 -72.6875 C 48.90625 -72.65625 51.40625 -72.617188 53.78125 -72.578125 C 56.15625 -72.546875 58.101562 -72.460938 59.625 -72.328125 C 61.207031 -72.191406 62.101562 -71.332031 62.3125 -69.75 C 62.375 -68.914062 62.4375 -67.738281 62.5 -66.21875 C 62.570312 -64.707031 62.625 -63.054688 62.65625 -61.265625 C 62.695312 -59.484375 62.734375 -57.796875 62.765625 -56.203125 C 62.804688 -54.617188 62.828125 -53.378906 62.828125 -52.484375 C 62.828125 -50.972656 62.304688 -50.179688 61.265625 -50.109375 C 60.234375 -50.046875 59.375 -50.566406 58.6875 -51.671875 C 57.3125 -54.078125 55.347656 -56.035156 52.796875 -57.546875 C 50.253906 -59.066406 47.222656 -59.828125 43.703125 -59.828125 C 40.460938 -59.828125 38.914062 -57.484375 39.0625 -52.796875 C 39.125 -50.523438 39.238281 -47.703125 39.40625 -44.328125 C 39.582031 -40.953125 39.773438 -37.300781 39.984375 -33.375 C 40.191406 -29.445312 40.378906 -25.535156 40.546875 -21.640625 C 40.722656 -17.753906 40.914062 -14.15625 41.125 -10.84375 C 41.332031 -7.539062 41.46875 -4.820312 41.53125 -2.6875 C 41.53125 -2 41.253906 -1.394531 40.703125 -0.875 C 40.160156 -0.363281 39.507812 -0.0351562 38.75 0.109375 C 37.925781 0.171875 36.789062 0.234375 35.34375 0.296875 C 33.894531 0.367188 32.894531 0.40625 32.34375 0.40625 Z M 32.34375 0.40625 "/></g></g></g><g fill="#000000" fill-opacity="1"><g transform="translate(136.414068, 100.749978)"><g><path d="M 12.5 0.40625 C 10.988281 0.40625 9.5625 0.351562 8.21875 0.25 C 6.875 0.15625 5.925781 0.0703125 5.375 0 C 3.71875 -0.34375 2.890625 -1.238281 2.890625 -2.6875 C 2.890625 -7.03125 2.921875 -11.695312 2.984375 -16.6875 C 3.054688 -21.675781 3.160156 -26.753906 3.296875 -31.921875 C 3.441406 -37.085938 3.582031 -42.066406 3.71875 -46.859375 C 3.851562 -51.648438 4.023438 -56.023438 4.234375 -59.984375 C 4.441406 -63.941406 4.648438 -67.226562 4.859375 -69.84375 C 4.992188 -71.363281 5.785156 -72.191406 7.234375 -72.328125 C 9.085938 -72.460938 11.460938 -72.597656 14.359375 -72.734375 C 17.253906 -72.878906 20.21875 -72.984375 23.25 -73.046875 C 26.28125 -73.117188 28.929688 -73.15625 31.203125 -73.15625 C 41.535156 -73.15625 49.523438 -71.519531 55.171875 -68.25 C 60.828125 -64.976562 63.65625 -60.3125 63.65625 -54.25 C 63.65625 -48.875 61.878906 -44.15625 58.328125 -40.09375 C 54.773438 -36.03125 49.8125 -32.894531 43.4375 -30.6875 C 37.070312 -28.476562 29.617188 -27.445312 21.078125 -27.59375 C 19.359375 -27.445312 18.5 -26.101562 18.5 -23.5625 C 18.5 -20.875 18.738281 -18.238281 19.21875 -15.65625 C 19.695312 -13.070312 20.210938 -10.691406 20.765625 -8.515625 C 21.316406 -6.347656 21.628906 -4.507812 21.703125 -3 C 21.765625 -2.238281 21.535156 -1.566406 21.015625 -0.984375 C 20.503906 -0.398438 19.867188 -0.0351562 19.109375 0.109375 C 18.148438 0.242188 17.050781 0.328125 15.8125 0.359375 C 14.570312 0.390625 13.46875 0.40625 12.5 0.40625 Z M 23.65625 -38.03125 C 29.3125 -38.09375 33.976562 -38.796875 37.65625 -40.140625 C 41.34375 -41.484375 44.082031 -43.253906 45.875 -45.453125 C 47.664062 -47.660156 48.5625 -49.972656 48.5625 -52.390625 C 48.5625 -55.210938 47.21875 -57.378906 44.53125 -58.890625 C 41.84375 -60.410156 37.4375 -61.171875 31.3125 -61.171875 C 29.65625 -61.171875 28.1875 -61.148438 26.90625 -61.109375 C 25.632812 -61.078125 24.347656 -60.992188 23.046875 -60.859375 C 21.734375 -60.785156 20.785156 -60.40625 20.203125 -59.71875 C 19.617188 -59.03125 19.253906 -58.171875 19.109375 -57.140625 C 18.835938 -55.210938 18.703125 -52.75 18.703125 -49.75 C 18.703125 -46.75 18.835938 -43.941406 19.109375 -41.328125 C 19.316406 -38.984375 20.832031 -37.882812 23.65625 -38.03125 Z M 23.65625 -38.03125 "/></g></g></g><g fill="#000000" fill-opacity="1"><g transform="translate(201.91924, 100.749978)"><g><path d="M 32.34375 0.40625 C 31.789062 0.40625 30.738281 0.351562 29.1875 0.25 C 27.632812 0.15625 26.445312 0.0703125 25.625 0 C 24.9375 -0.132812 24.316406 -0.441406 23.765625 -0.921875 C 23.210938 -1.410156 22.972656 -2 23.046875 -2.6875 C 23.109375 -4.820312 23.222656 -7.539062 23.390625 -10.84375 C 23.566406 -14.15625 23.738281 -17.738281 23.90625 -21.59375 C 24.082031 -25.445312 24.257812 -29.335938 24.4375 -33.265625 C 24.613281 -37.191406 24.785156 -40.84375 24.953125 -44.21875 C 25.128906 -47.59375 25.25 -50.453125 25.3125 -52.796875 C 25.445312 -57.484375 23.898438 -59.828125 20.671875 -59.828125 C 17.703125 -59.828125 14.769531 -59.066406 11.875 -57.546875 C 8.988281 -56.035156 6.820312 -54.078125 5.375 -51.671875 C 4.6875 -50.566406 3.820312 -50.046875 2.78125 -50.109375 C 1.75 -50.179688 1.234375 -50.972656 1.234375 -52.484375 C 1.234375 -53.453125 1.25 -54.726562 1.28125 -56.3125 C 1.320312 -57.894531 1.375 -59.5625 1.4375 -61.3125 C 1.507812 -63.070312 1.5625 -64.707031 1.59375 -66.21875 C 1.632812 -67.738281 1.6875 -68.914062 1.75 -69.75 C 1.894531 -70.644531 2.207031 -71.28125 2.6875 -71.65625 C 3.164062 -72.03125 3.71875 -72.253906 4.34375 -72.328125 C 6.476562 -72.535156 9.179688 -72.65625 12.453125 -72.6875 C 15.722656 -72.726562 19.113281 -72.75 22.625 -72.75 C 26.144531 -72.75 29.28125 -72.75 32.03125 -72.75 C 33.894531 -72.75 36.082031 -72.75 38.59375 -72.75 C 41.101562 -72.75 43.664062 -72.726562 46.28125 -72.6875 C 48.90625 -72.65625 51.40625 -72.617188 53.78125 -72.578125 C 56.15625 -72.546875 58.101562 -72.460938 59.625 -72.328125 C 61.207031 -72.191406 62.101562 -71.332031 62.3125 -69.75 C 62.375 -68.914062 62.4375 -67.738281 62.5 -66.21875 C 62.570312 -64.707031 62.625 -63.054688 62.65625 -61.265625 C 62.695312 -59.484375 62.734375 -57.796875 62.765625 -56.203125 C 62.804688 -54.617188 62.828125 -53.378906 62.828125 -52.484375 C 62.828125 -50.972656 62.304688 -50.179688 61.265625 -50.109375 C 60.234375 -50.046875 59.375 -50.566406 58.6875 -51.671875 C 57.3125 -54.078125 55.347656 -56.035156 52.796875 -57.546875 C 50.253906 -59.066406 47.222656 -59.828125 43.703125 -59.828125 C 40.460938 -59.828125 38.914062 -57.484375 39.0625 -52.796875 C 39.125 -50.523438 39.238281 -47.703125 39.40625 -44.328125 C 39.582031 -40.953125 39.773438 -37.300781 39.984375 -33.375 C 40.191406 -29.445312 40.378906 -25.535156 40.546875 -21.640625 C 40.722656 -17.753906 40.914062 -14.15625 41.125 -10.84375 C 41.332031 -7.539062 41.46875 -4.820312 41.53125 -2.6875 C 41.53125 -2 41.253906 -1.394531 40.703125 -0.875 C 40.160156 -0.363281 39.507812 -0.0351562 38.75 0.109375 C 37.925781 0.171875 36.789062 0.234375 35.34375 0.296875 C 33.894531 0.367188 32.894531 0.40625 32.34375 0.40625 Z M 32.34375 0.40625 "/></g></g></g></g></g></svg>